# xmcd CD database file
#
# Track frame offsets:
#	150
#	17083
#	37882
#	55820
#	75286
#	92780
#	112902
#	130453
#	148931
#	165717
#	183891
#	215423
#
# Disc length: 4440 seconds
#
# Revision: 2
# Processed by: cddbd v1.5.2PL0 Copyright (c) Steve Scherf et al.
# Submitted via: CDex 1.79
#
DISCID=9911560c
DTITLE=Lene Marlin - Lost In A Moment
DYEAR=2005
DGENRE=Pop
TTITLE0=My Lucky Day
TTITLE1=All I Can Say
TTITLE2=How Would It Be
TTITLE3=Hope You're Happy
TTITLE4=What If
TTITLE5=Leave My Mind
TTITLE6=When You Were Around
TTITLE7=Never To Know
TTITLE8=Eyes Closed
TTITLE9=It's True
TTITLE10=Wish I Could
TTITLE11=data
EXTD=YEAR: 2005
EXTT0=
EXTT1=
EXTT2=
EXTT3=
EXTT4=
EXTT5=
EXTT6=
EXTT7=
EXTT8=
EXTT9=
EXTT10=
EXTT11=
PLAYORDER=
